# xmcd CD database file
#
# Track frame offsets:
#	150
#	22302
#	39895
#	57695
#	77895
#	98200
#	118470
#	131247
#
# Disc length: 2046 seconds
#
# Revision: 0
# Processed by: cddbd v1.4PL0 Copyright (c) Steve Scherf et al.
# Submitted via: CDex 1.51
#
DISCID=7707fc08
DTITLE=Willie Nelson - Angel Eyes
DYEAR=1984
DGENRE=Country
TTITLE0=Angel Eyes
TTITLE1=Tumbling Tumbleweed
TTITLE2=I fall in love too Easily
TTITLE3=Thank You
TTITLE4=My window faces the south
TTITLE5=The Gypsy
TTITLE6=There will never be another you
TTITLE7=Samba for Charley
EXTD=YEAR: 1984
EXTT0=
EXTT1=
EXTT2=
EXTT3=
EXTT4=
EXTT5=
EXTT6=
EXTT7=
PLAYORDER=
